<svg id="Layer_1" enable-background="new 0 0 256 256" height="512" viewBox="0 0 256 256" width="512" xmlns="http://www.w3.org/2000/svg"><path d="m206.812 179.551h-183.807c-8.287 0-15.005-6.718-15.005-15.004v-138.794c0-8.287 6.718-15.005 15.005-15.005h183.808c8.287 0 15.005 6.718 15.005 15.005v138.794c-.001 8.286-6.719 15.004-15.006 15.004z" fill="#e0ebfc"/><path d="m19.335 128.912v-101.282c0-3.108 2.519-5.627 5.627-5.627h180.056c3.108 0 5.627 2.519 5.627 5.627v101.282c0 3.108-2.519 5.627-5.627 5.627h-180.056c-3.108 0-5.627-2.519-5.627-5.627z" fill="#6bdddd"/><path d="m179.98 223.628h-130.143c-2.907 0-5.263-2.356-5.263-5.263v-2.602c0-2.907 2.356-5.263 5.263-5.263h130.143c2.907 0 5.263 2.356 5.263 5.263v2.602c0 2.906-2.356 5.263-5.263 5.263z" fill="#a4c9ff"/><path d="m70.894 179.553-7.564 30.945h103.157l-7.564-30.945z" fill="#e0ebfc"/><path d="m8 145.791v18.756c0 8.287 6.718 15.005 15.005 15.005h183.808c8.287 0 15.005-6.718 15.005-15.005v-18.756z" fill="#a4c9ff"/><path d="m115.39 172.049h-.963c-4.893 0-8.897-4.004-8.897-8.897v-.963c0-4.893 4.004-8.897 8.897-8.897h.963c4.893 0 8.897 4.004 8.897 8.897v.963c-.001 4.893-4.004 8.897-8.897 8.897z" fill="#4671c6"/><g fill="#3762cc"><path d="m206.813 181.552h-183.808c-9.377 0-17.005-7.628-17.005-17.005v-138.794c0-9.377 7.628-17.005 17.005-17.005h183.808c9.376 0 17.004 7.628 17.004 17.005v138.794c0 9.377-7.628 17.005-17.004 17.005zm-183.808-168.804c-7.171 0-13.005 5.834-13.005 13.005v138.794c0 7.171 5.834 13.005 13.005 13.005h183.808c7.17 0 13.004-5.834 13.004-13.005v-138.794c0-7.171-5.834-13.005-13.004-13.005z"/><path d="m179.979 225.628h-130.142c-4.005 0-7.263-3.259-7.263-7.264v-2.603c0-4.005 3.258-7.264 7.263-7.264h130.142c4.005 0 7.264 3.259 7.264 7.264v2.603c0 4.005-3.258 7.264-7.264 7.264zm-130.142-13.13c-1.799 0-3.263 1.464-3.263 3.264v2.603c0 1.8 1.464 3.264 3.263 3.264h130.142c1.8 0 3.264-1.464 3.264-3.264v-2.603c0-1.8-1.464-3.264-3.264-3.264z"/><path d="m166.487 212.498h-103.157c-.614 0-1.194-.282-1.573-.765s-.515-1.114-.37-1.71l7.564-30.945c.219-.896 1.021-1.525 1.943-1.525h88.028c.922 0 1.724.63 1.943 1.525l7.564 30.945c.146.596.009 1.227-.37 1.71-.378.483-.957.765-1.572.765zm-100.609-4h98.062l-6.586-26.945h-84.89z"/><path d="m206.813 181.551h-183.808c-9.377 0-17.005-7.628-17.005-17.004v-18.756c0-1.104.896-2 2-2h213.817c1.104 0 2 .896 2 2v18.756c0 9.376-7.628 17.004-17.004 17.004zm-196.813-33.76v16.756c0 7.17 5.834 13.004 13.005 13.004h183.808c7.17 0 13.004-5.834 13.004-13.004v-16.756z"/><path d="m205.018 136.539h-180.056c-4.206 0-7.627-3.422-7.627-7.627v-101.282c0-4.205 3.421-7.626 7.627-7.626h180.056c4.206 0 7.627 3.421 7.627 7.626v101.282c0 4.205-3.421 7.627-7.627 7.627zm-180.056-112.535c-2 0-3.627 1.627-3.627 3.626v101.282c0 2 1.627 3.627 3.627 3.627h180.056c2 0 3.627-1.627 3.627-3.627v-101.282c0-1.999-1.627-3.626-3.627-3.626z"/></g><path d="m98.859 107.222c-.955 0-1.912-.34-2.677-1.028l-19.939-17.972c-1.23-1.109-1.65-2.86-1.057-4.406.594-1.545 2.079-2.565 3.734-2.565h71.976c2.209 0 4 1.791 4 4s-1.791 4-4 4h-61.563l12.205 11c1.642 1.479 1.772 4.009.294 5.649-.79.876-1.88 1.322-2.973 1.322z" fill="#4671c6"/><path d="m150.896 75.292h-71.975c-2.209 0-4-1.791-4-4s1.791-4 4-4h61.563l-12.205-11c-1.642-1.479-1.772-4.009-.294-5.649 1.479-1.642 4.01-1.771 5.649-.294l19.939 17.972c1.23 1.109 1.65 2.86 1.057 4.406-.593 1.544-2.078 2.565-3.734 2.565z" fill="#4671c6"/><path d="m179.918 143.128h68.082v87.535h-68.082z" fill="#6bdddd" transform="matrix(-1 0 0 -1 427.918 373.791)"/><path d="m248 136.32v6.808h-68.082v-6.808c0-4.297 3.484-7.781 7.781-7.781h52.521c4.296 0 7.78 3.483 7.78 7.781z" fill="#e0ebfc"/><path d="m179.918 237.471v-6.808h68.082v6.808c0 4.297-3.484 7.781-7.781 7.781h-52.521c-4.297 0-7.78-3.484-7.78-7.781z" fill="#e0ebfc"/><path d="m240.219 247.252h-52.521c-5.393 0-9.781-4.388-9.781-9.781v-101.152c0-5.393 4.388-9.78 9.781-9.78h52.521c5.393 0 9.781 4.388 9.781 9.78v101.151c0 5.394-4.388 9.782-9.781 9.782zm-52.521-116.713c-3.188 0-5.781 2.593-5.781 5.78v101.151c0 3.188 2.593 5.781 5.781 5.781h52.521c3.188 0 5.781-2.594 5.781-5.781v-101.151c0-3.188-2.593-5.78-5.781-5.78z" fill="#3762cc"/><path d="m208.123 241.848h11.671c1.611 0 2.918-1.306 2.918-2.918v-1.945c0-1.611-1.306-2.918-2.918-2.918h-11.671c-1.611 0-2.918 1.306-2.918 2.918v1.945c0 1.611 1.307 2.918 2.918 2.918z" fill="#a4c9ff"/><path d="m206.664 138.265h14.589c1.343 0 2.432-1.089 2.432-2.432 0-1.343-1.089-2.432-2.432-2.432h-14.589c-1.343 0-2.432 1.089-2.432 2.432.001 1.343 1.089 2.432 2.432 2.432z" fill="#a4c9ff"/><path d="m248 145.128h-68.083c-1.104 0-2-.896-2-2v-6.809c0-5.393 4.388-9.78 9.781-9.78h52.521c5.393 0 9.781 4.388 9.781 9.78v6.809c0 1.104-.896 2-2 2zm-66.083-4h64.083v-4.809c0-3.188-2.593-5.78-5.781-5.78h-52.521c-3.188 0-5.781 2.593-5.781 5.78z" fill="#3762cc"/><path d="m240.219 247.252h-52.521c-5.393 0-9.781-4.388-9.781-9.781v-6.809c0-1.104.896-2 2-2h68.083c1.104 0 2 .896 2 2v6.809c0 5.393-4.388 9.781-9.781 9.781zm-58.302-14.59v4.809c0 3.188 2.593 5.781 5.781 5.781h52.521c3.188 0 5.781-2.594 5.781-5.781v-4.809z" fill="#3762cc"/><path d="m240.219 247.252h-52.521c-5.393 0-9.781-4.388-9.781-9.781v-101.152c0-5.393 4.388-9.78 9.781-9.78h52.521c5.393 0 9.781 4.388 9.781 9.78v101.151c0 5.394-4.388 9.782-9.781 9.782zm-52.521-116.713c-3.188 0-5.781 2.593-5.781 5.78v101.151c0 3.188 2.593 5.781 5.781 5.781h52.521c3.188 0 5.781-2.594 5.781-5.781v-101.151c0-3.188-2.593-5.78-5.781-5.78z" fill="#3762cc"/><path d="m205.805 204.92c-.716 0-1.434-.255-2.008-.771l-10.13-9.131c-.922-.832-1.237-2.146-.792-3.305s1.56-1.924 2.801-1.924l36.565.001c1.657 0 3 1.343 3 3s-1.344 3-3 3l-28.756-.001 4.329 3.902c1.23 1.109 1.329 3.007.22 4.237-.593.658-1.409.992-2.229.992z" fill="#4671c6"/><path d="m232.241 184.002h-36.565c-1.657 0-3-1.343-3-3s1.343-3 3-3h28.757l-4.33-3.902c-1.23-1.109-1.329-3.007-.22-4.237 1.11-1.23 3.006-1.327 4.237-.22l10.13 9.131c.922.832 1.237 2.146.792 3.305s-1.559 1.923-2.801 1.923z" fill="#4671c6"/></svg>