<?xml version="1.0" encoding="utf-8"?>
<!-- Generator: Adobe Illustrator 19.2.1, SVG Export Plug-In . SVG Version: 6.00 Build 0)  -->
<svg version="1.1" id="layer" xmlns="http://www.w3.org/2000/svg" xmlns:xlink="http://www.w3.org/1999/xlink" x="0px" y="0px"
	 viewBox="0 0 652 652" style="enable-background:new 0 0 652 652;" xml:space="preserve">
<style type="text/css">
	.st0{fill:#289EDA;}
</style>
<g>
	<path class="st0" d="M95.2,318.7v33.8c-8.8,5.4-18.3,8.5-30.6,8.5C41.2,360.9,21,344.9,21,321c0-24.1,20.5-40,43.6-40
		c12.1,0,20.7,3.2,29.1,8.1l-6.4,10.5c-6.6-4-14.4-6.5-22.1-6.5C46.6,293.2,36,305.7,36,321c0,16.5,12.9,28.2,29.1,28.2
		c7.1,0,11.8-1.1,16.6-3.7v-15.2l-19.2,0v-11.6"/>
</g>
<path class="st0" d="M149.9,305.7l-11.7,25.8h23.3L149.9,305.7z M174.1,359.7l-8-17.7h-32.5l-8,17.7h-14.4l37.9-78.4h2l37.8,78.4"/>
<polyline class="st0" points="275.6,361.1 224.2,310.1 224.2,359.7 210.2,359.7 210.2,281.3 212.4,280.9 263.2,331.2 263.2,282.3 
	277.2,282.3 277.2,360.8 "/>
<polyline class="st0" points="370.7,361.1 319.2,310.1 319.2,359.7 305.2,359.7 305.2,281.3 307.4,280.9 358.2,331.2 358.2,282.3 
	372.2,282.3 372.2,360.8 "/>
<polyline class="st0" points="400.3,359.7 400.3,282.3 450.4,282.3 450.4,294.4 414.2,294.4 414.2,314.6 446.9,314.6 446.9,326.2 
	414.2,326.2 414.2,347.7 450.4,347.7 450.4,359.7 "/>
<polyline class="st0" points="512,294.4 512,359.7 498,359.7 498,294.4 471.9,294.4 471.9,282.3 538,282.3 538,294.4 "/>
<polyline class="st0" points="595,294.4 595,359.7 581,359.7 581,294.4 554.8,294.4 554.8,282.3 621,282.3 621,294.4 "/>
</svg>
