<svg height="512" viewBox="0 0 128 128" width="512" xmlns="http://www.w3.org/2000/svg"><path d="m120.148 55.12h-20.4a4.356 4.356 0 0 0 -4.351 4.351v10.829a4.356 4.356 0 0 0 4.351 4.352h3.988v3.828a1 1 0 0 0 .589.912 1 1 0 0 0 1.074-.162l5.179-4.576h9.573a4.357 4.357 0 0 0 4.349-4.354v-10.829a4.357 4.357 0 0 0 -4.352-4.351z" fill="#e6e7e8"/><path d="m26.6 79.23a1 1 0 0 0 1.663-.75v-3.826h3.987a4.357 4.357 0 0 0 4.356-4.354v-10.829a4.356 4.356 0 0 0 -4.352-4.351h-20.4a4.356 4.356 0 0 0 -4.354 4.351v10.829a4.357 4.357 0 0 0 4.352 4.352h9.574z" fill="#e6e7e8"/><path d="m105.187 107.437v-9.26a30.1 30.1 0 0 0 -28.513-30.022 23.689 23.689 0 0 0 5.719-4.072 23.415 23.415 0 0 0 6.619-11.7 3.519 3.519 0 0 0 .926.126c2.451 0 4.37-2.529 4.37-5.757a7.514 7.514 0 0 0 -.324-2.206v-9.939a27.985 27.985 0 1 0 -55.969 0v9.941a7.533 7.533 0 0 0 -.323 2.2c0 3.228 1.919 5.757 4.37 5.757a3.474 3.474 0 0 0 1.035-.163 24.46 24.46 0 0 0 12.425 15.8 30.1 30.1 0 0 0 -28.709 30.035v9.26a9 9 0 0 0 1 17.941h76.374a9 9 0 0 0 1-17.941z" fill="#e6e7e8"/><path d="m23.814 120.378v-26.2a29.061 29.061 0 0 1 29.061-29.063h18.249a29.061 29.061 0 0 1 29.062 29.062v26.2z" fill="#ffd7e5"/><path d="m53.128 67.176v-2.061h-.253a29.061 29.061 0 0 0 -29.061 29.062v3a29.061 29.061 0 0 1 29.061-29.062h.3a8.821 8.821 0 0 1 -.047-.939z" fill="#fff"/><path d="m71.124 65.115h-.252v2.061a8.821 8.821 0 0 1 -.051.939h.3a29.061 29.061 0 0 1 29.062 29.062v-3a29.061 29.061 0 0 0 -29.059-29.062z" fill="#fff"/><path d="m57.064 74.548h9.871a8.861 8.861 0 0 0 3.937-7.372v-3.233a22.4 22.4 0 0 1 -8.727 1.757h-.29a22.4 22.4 0 0 1 -8.727-1.758v3.233a8.863 8.863 0 0 0 3.936 7.373z" fill="#fff"/><path d="m62 3.622a26.986 26.986 0 0 0 -26.985 26.985v10.144c.537-1.623 1.694-2.751 3.047-2.751a2.55 2.55 0 0 1 1.33.388v-3.763a19.255 19.255 0 0 1 5.57-13.57 7.581 7.581 0 0 1 7.838-1.744 30.21 30.21 0 0 0 9.2 1.281 30.21 30.21 0 0 0 9.2-1.281 7.581 7.581 0 0 1 7.833 1.744 19.255 19.255 0 0 1 5.57 13.57v3.759a2.547 2.547 0 0 1 1.335-.384c1.352 0 2.51 1.132 3.047 2.755v-10.148a26.986 26.986 0 0 0 -26.985-26.985z" fill="#d4fbff"/><path d="m85.938 38a2.547 2.547 0 0 0 -1.33.388v4.709a22.783 22.783 0 0 1 -.32 3.783 2.64 2.64 0 0 0 1.65.633c1.861 0 3.369-2.129 3.369-4.756s-1.507-4.757-3.369-4.757z" fill="#fff"/><path d="m39.392 42.551v-4.167a2.55 2.55 0 0 0 -1.33-.384c-1.861 0-3.369 2.129-3.369 4.757s1.508 4.756 3.369 4.756a2.668 2.668 0 0 0 1.724-.69 23.528 23.528 0 0 1 -.394-4.272z" fill="#fff"/><path d="m79.038 21.055a7.581 7.581 0 0 0 -7.833-1.744 30.21 30.21 0 0 1 -9.205 1.281 30.21 30.21 0 0 1 -9.2-1.281 7.581 7.581 0 0 0 -7.833 1.744 19.256 19.256 0 0 0 -5.57 13.571v7.925c0 12.259 9.532 22.7 21.784 23.136a22.609 22.609 0 0 0 23.427-22.594v-8.467a19.256 19.256 0 0 0 -5.57-13.571z" fill="#fff"/><path d="m47.86 30.8h8.876a3.477 3.477 0 0 1 3.477 3.477v5.06a5.89 5.89 0 0 1 -5.89 5.89h-5.646a5.89 5.89 0 0 1 -5.89-5.89v-3.466a5.074 5.074 0 0 1 5.073-5.071z" fill="#d4fbff"/><path d="m69.677 30.8h5.646a5.89 5.89 0 0 1 5.89 5.89v6.249a2.287 2.287 0 0 1 -2.287 2.287h-10.066a5.074 5.074 0 0 1 -5.074-5.074v-3.465a5.89 5.89 0 0 1 5.89-5.89z" fill="#d4fbff" transform="matrix(-1 0 0 -1 145 76.021)"/><path d="m116.149 52.119h-20.4a3.351 3.351 0 0 0 -3.351 3.352v10.829a3.351 3.351 0 0 0 3.351 3.352h4.988v4.828l5.463-4.826h9.953a3.352 3.352 0 0 0 3.347-3.354v-10.829a3.352 3.352 0 0 0 -3.351-3.352z" fill="#fa759e"/><path d="m103.189 65.134a.641.641 0 0 1 .2.509.625.625 0 0 1 -.2.5.706.706 0 0 1 -.486.175h-.948a1.457 1.457 0 0 1 -1.595-1.6v-2.086a1.124 1.124 0 0 0 -.163-.679.763.763 0 0 0 -.558-.246.718.718 0 0 1 -.5-.21.7.7 0 0 1 -.174-.5.669.669 0 0 1 .174-.474.726.726 0 0 1 .5-.21.756.756 0 0 0 .561-.243 1.122 1.122 0 0 0 .163-.679v-2.1a1.457 1.457 0 0 1 1.595-1.6h.948a.714.714 0 0 1 .486.173.63.63 0 0 1 .2.5.644.644 0 0 1 -.2.511.715.715 0 0 1 -.486.174h-.276a.529.529 0 0 0 -.372.113.547.547 0 0 0 -.12.4v2.04a1.456 1.456 0 0 1 -.3.924 1.259 1.259 0 0 1 -.7.48 1.259 1.259 0 0 1 .7.48 1.453 1.453 0 0 1 .3.923v2.029a.544.544 0 0 0 .12.4.524.524 0 0 0 .372.114h.276a.705.705 0 0 1 .483.182z" fill="#fff"/><path d="m105.215 59.913a1.088 1.088 0 0 1 0-1.475 1.056 1.056 0 0 1 1.464 0 1.088 1.088 0 0 1 0 1.475 1.058 1.058 0 0 1 -1.464 0zm1.464 2.593a1.5 1.5 0 0 1 .288.989 3.056 3.056 0 0 1 -.9 2.185.539.539 0 0 1 -.384.18.51.51 0 0 1 -.354-.138.435.435 0 0 1 -.15-.331.428.428 0 0 1 .132-.312 2.029 2.029 0 0 0 .528-.911 1 1 0 0 1 -.66-.3.93.93 0 0 1 -.252-.671 1.028 1.028 0 0 1 .282-.739.937.937 0 0 1 .7-.294.954.954 0 0 1 .77.342z" fill="#fff"/><path d="m112.953 60.526a.665.665 0 0 1 .174.474.7.7 0 0 1 -.174.5.718.718 0 0 1 -.5.21.763.763 0 0 0 -.558.246 1.125 1.125 0 0 0 -.162.679l-.012 2.088a1.591 1.591 0 0 1 -.42 1.176 1.573 1.573 0 0 1 -1.164.42h-.96a.69.69 0 0 1 -.474-.175.628.628 0 0 1 -.2-.5.644.644 0 0 1 .2-.509.689.689 0 0 1 .474-.174h.288a.524.524 0 0 0 .372-.114.544.544 0 0 0 .12-.4v-2.032a1.453 1.453 0 0 1 .3-.923 1.259 1.259 0 0 1 .7-.48 1.259 1.259 0 0 1 -.7-.48 1.456 1.456 0 0 1 -.3-.924v-2.04a.547.547 0 0 0 -.12-.4.529.529 0 0 0 -.372-.113h-.288a.7.7 0 0 1 -.474-.174.647.647 0 0 1 -.2-.511.634.634 0 0 1 .2-.5.7.7 0 0 1 .474-.173h.96a1.457 1.457 0 0 1 1.584 1.6v2.1a1.123 1.123 0 0 0 .162.679.772.772 0 0 0 .57.246.726.726 0 0 1 .5.204z" fill="#fff"/><path d="m7.851 52.119h20.4a3.352 3.352 0 0 1 3.352 3.352v10.829a3.352 3.352 0 0 1 -3.352 3.352h-4.984v4.828l-5.467-4.826h-9.949a3.352 3.352 0 0 1 -3.351-3.354v-10.829a3.352 3.352 0 0 1 3.351-3.352z" fill="#fa759e"/><path d="m14.483 63.381a.548.548 0 0 1 .09.306.642.642 0 0 1 -.186.474.629.629 0 0 1 -.462.186.909.909 0 0 1 -.336-.072l-4.236-1.728a1.075 1.075 0 0 1 -.468-.378 1.007 1.007 0 0 1 .468-1.506l4.236-1.728a.934.934 0 0 1 .347-.072.62.62 0 0 1 .457.18.633.633 0 0 1 .18.468.531.531 0 0 1 -.348.516l-3.925 1.573 3.924 1.572a.563.563 0 0 1 .259.209z" fill="#fff"/><path d="m17.555 62.247a.726.726 0 0 1 -.15-.48 2.1 2.1 0 0 1 .222-1.02 5.15 5.15 0 0 1 .654-.9 4.863 4.863 0 0 0 .474-.618 1.05 1.05 0 0 0 .15-.558.651.651 0 0 0 -.246-.534 1.032 1.032 0 0 0 -.666-.2 1.649 1.649 0 0 0 -.714.156q-.33.156-.882.48a1.271 1.271 0 0 1 -.576.192.524.524 0 0 1 -.426-.222.839.839 0 0 1 -.174-.534.786.786 0 0 1 .078-.366.886.886 0 0 1 .246-.282 4 4 0 0 1 1.218-.654 4.291 4.291 0 0 1 1.386-.234 3.261 3.261 0 0 1 1.338.264 2.2 2.2 0 0 1 .924.726 1.743 1.743 0 0 1 .33 1.038 1.862 1.862 0 0 1 -.174.81 2.685 2.685 0 0 1 -.414.636q-.24.27-.648.666a7.054 7.054 0 0 0 -.684.7 1.354 1.354 0 0 0 -.288.63.609.609 0 0 1 -.2.354.55.55 0 0 1 -.366.126.51.51 0 0 1 -.412-.176zm-.294 2.574a1.09 1.09 0 0 1 0-1.476.981.981 0 0 1 .732-.294.967.967 0 0 1 .72.294 1.09 1.09 0 0 1 0 1.476.967.967 0 0 1 -.72.294.981.981 0 0 1 -.732-.294z" fill="#fff"/><path d="m27.221 61.035a1.041 1.041 0 0 1 0 1.134 1.084 1.084 0 0 1 -.469.378l-4.235 1.728a.917.917 0 0 1 -.336.072.626.626 0 0 1 -.462-.186.639.639 0 0 1 -.187-.474.548.548 0 0 1 .09-.306.574.574 0 0 1 .258-.21l3.925-1.571-3.925-1.573a.531.531 0 0 1 -.348-.516.637.637 0 0 1 .18-.468.618.618 0 0 1 .456-.18.944.944 0 0 1 .349.072l4.235 1.728a.994.994 0 0 1 .469.372z" fill="#fff"/><path d="m92.342 113.947a7.975 7.975 0 0 1 .513-4.767v-30.632a4 4 0 0 0 -4-4h-53.71a4 4 0 0 0 -4 4v30.632a7.975 7.975 0 0 1 .513 4.767z" fill="#6dc9f7"/><path d="m35.5 113.947v-30.114a4 4 0 0 1 4-4h45a4 4 0 0 1 4 4v30.114z" fill="#d4fbff"/><path d="m55.813 102.752v.035a2.066 2.066 0 0 1 -2.887 1.9l-11.641-5.049a2.965 2.965 0 0 1 -1.785-2.72v-.032a2.965 2.965 0 0 1 1.785-2.72l11.641-5.045a2.066 2.066 0 0 1 2.887 1.9v.057a2.065 2.065 0 0 1 -1.323 1.922l-10.044 3.87 10.054 3.96a2.065 2.065 0 0 1 1.313 1.922z" fill="#fa759e"/><path d="m65.011 84.461a1.92 1.92 0 0 0 -2.317 1.415l-5.119 21.15a1.921 1.921 0 0 0 1.414 2.317 1.947 1.947 0 0 0 .453.054 1.912 1.912 0 0 0 1.864-1.468l5.119-21.151a1.923 1.923 0 0 0 -1.414-2.317z" fill="#fa759e"/><path d="m82.719 99.6-11.642 5.069a2.066 2.066 0 0 1 -2.89-1.894v-.029a2.067 2.067 0 0 1 1.313-1.926l10.089-3.961-10.08-3.9a2.065 2.065 0 0 1 -1.32-1.927 2.065 2.065 0 0 1 2.884-1.9l11.637 5.025a2.965 2.965 0 0 1 1.79 2.722 2.965 2.965 0 0 1 -1.781 2.721z" fill="#fa759e"/><path d="m92.342 113.947h-60.684a8.011 8.011 0 0 1 -4.688 5.781 3.971 3.971 0 0 0 2.175.65h65.71a3.968 3.968 0 0 0 2.174-.65 8.012 8.012 0 0 1 -4.687-5.781z" fill="#0089ef"/><circle cx="23.814" cy="112.378" fill="#fff" r="8"/><circle cx="100.186" cy="112.378" fill="#fff" r="8"/><g fill="#3a2c60"><path d="m52.026 37.668a2.261 2.261 0 1 0 2.26 2.261 2.261 2.261 0 0 0 -2.26-2.261z"/><path d="m71.974 37.668a2.261 2.261 0 1 0 2.261 2.261 2.261 2.261 0 0 0 -2.261-2.261z"/><path d="m62 50.992a3.575 3.575 0 0 0 3.571-3.572v-1.507a1 1 0 0 0 -2 0v1.507a1.571 1.571 0 1 1 -3.142 0v-1.507a1 1 0 0 0 -2 0v1.507a3.575 3.575 0 0 0 3.571 3.572z"/><path d="m75.024 34.351-4.424-.771a1 1 0 1 0 -.344 1.97l4.427.771a1.02 1.02 0 0 0 .173.015 1 1 0 0 0 .17-1.985z"/><path d="m53.4 33.58-4.427.771a1 1 0 1 0 .342 1.97l4.428-.771a1 1 0 1 0 -.343-1.97z"/><path d="m67.807 54.19a1 1 0 0 0 -1.594-1.208 5.554 5.554 0 0 1 -4.213 1.918 5.363 5.363 0 0 1 -4.2-1.9 1 1 0 0 0 -1.618 1.175 7.373 7.373 0 0 0 5.818 2.725 7.578 7.578 0 0 0 5.807-2.71z"/><path d="m116.148 51.12h-20.4a4.356 4.356 0 0 0 -4.351 4.351v10.829a4.356 4.356 0 0 0 4.351 4.352h3.988v3.828a1 1 0 0 0 .589.912 1 1 0 0 0 1.074-.162l5.179-4.576h9.573a4.357 4.357 0 0 0 4.349-4.354v-10.829a4.357 4.357 0 0 0 -4.352-4.351zm2.352 15.18a2.355 2.355 0 0 1 -2.353 2.352h-9.947a1 1 0 0 0 -.662.25l-3.8 3.359v-2.607a1 1 0 0 0 -1-1h-4.993a2.354 2.354 0 0 1 -2.351-2.354v-10.829a2.353 2.353 0 0 1 2.351-2.351h20.4a2.355 2.355 0 0 1 2.353 2.351z"/><path d="m22.6 75.23a1 1 0 0 0 1.663-.75v-3.826h3.987a4.357 4.357 0 0 0 4.356-4.354v-10.829a4.356 4.356 0 0 0 -4.352-4.351h-20.403a4.356 4.356 0 0 0 -4.351 4.351v10.829a4.357 4.357 0 0 0 4.352 4.352h9.574zm-17.1-8.93v-10.829a2.354 2.354 0 0 1 2.351-2.351h20.4a2.354 2.354 0 0 1 2.352 2.351v10.829a2.355 2.355 0 0 1 -2.352 2.352h-4.984a1 1 0 0 0 -1 1v2.609l-3.8-3.359a1 1 0 0 0 -.662-.25h-9.954a2.355 2.355 0 0 1 -2.351-2.352z"/><path d="m35.5 103.958a1 1 0 0 0 1-1v-6.5a1 1 0 0 0 -2 0v6.5a1 1 0 0 0 1 1z"/><path d="m40.888 100.555 11.64 5.045a3.066 3.066 0 0 0 4.285-2.812v-.036a3.049 3.049 0 0 0 -1.943-2.852l-7.67-3.02 7.648-2.946a3.1 3.1 0 0 0 1.963-2.917 3.066 3.066 0 0 0 -4.283-2.817l-11.64 5.045a3.988 3.988 0 0 0 0 7.306zm.8-5.472 11.64-5.044a1.077 1.077 0 0 1 .427-.09 1.058 1.058 0 0 1 .582.176 1.112 1.112 0 0 1 -.2 1.942l-10.044 3.87a1 1 0 0 0 -.013 1.863l10.058 3.96a1.06 1.06 0 0 1 .675.992v.036a1.066 1.066 0 0 1 -1.49.977l-11.64-5.045a1.989 1.989 0 0 1 0-3.637z"/><path d="m56.949 109a2.919 2.919 0 0 0 5.329-.834l5.122-21.151a2.919 2.919 0 1 0 -5.674-1.374l-5.126 21.149a2.892 2.892 0 0 0 .349 2.21zm1.6-1.736 5.119-21.151a.915.915 0 0 1 .417-.57.9.9 0 0 1 .474-.134.946.946 0 0 1 .217.026.921.921 0 0 1 .678 1.11l-5.119 21.151a.932.932 0 0 1 -1.109.678.921.921 0 0 1 -.569-.416.91.91 0 0 1 -.11-.696z"/><path d="m69.146 93.892 7.687 2.974-7.7 3.024a3.079 3.079 0 1 0 2.346 5.693l11.641-5.069a3.964 3.964 0 0 0 -.012-7.275l-11.641-5.021a3.066 3.066 0 1 0 -2.321 5.674zm.521-3.75a1.052 1.052 0 0 1 .582-.178 1.064 1.064 0 0 1 .425.09l11.639 5.021a1.964 1.964 0 0 1 .007 3.605l-11.641 5.069a1.049 1.049 0 0 1 -1.01-.086 1.09 1.09 0 0 1 .194-1.912l10.09-3.961a1 1 0 0 0 0-1.864l-10.079-3.9a1.058 1.058 0 0 1 -.681-.994 1.047 1.047 0 0 1 .474-.89z"/><path d="m101.187 103.437v-9.26a30.1 30.1 0 0 0 -28.513-30.022 23.689 23.689 0 0 0 5.719-4.072 23.417 23.417 0 0 0 6.62-11.7 3.427 3.427 0 0 0 .925.13c2.451 0 4.37-2.529 4.37-5.757a7.514 7.514 0 0 0 -.324-2.206v-9.943a27.985 27.985 0 1 0 -55.969 0v9.941a7.533 7.533 0 0 0 -.323 2.2c0 3.228 1.919 5.757 4.37 5.757a3.446 3.446 0 0 0 1.036-.16 24.456 24.456 0 0 0 12.424 15.8 30.1 30.1 0 0 0 -28.709 30.032v9.26a9 9 0 0 0 1 17.941h76.374a9 9 0 0 0 1-17.941zm-2 0a8.976 8.976 0 0 0 -5.332 2.553v-27.442a4.91 4.91 0 0 0 -.094-.929 27.906 27.906 0 0 1 5.426 16.558zm-27.315-37.3a27.954 27.954 0 0 1 18.537 7.683 4.943 4.943 0 0 0 -1.554-.272h-19.349a9.788 9.788 0 0 0 2.366-6.372zm-2.087-.766c.032.026.061.04.087.031v1.777a7.835 7.835 0 0 1 -3.294 6.372h-9.156a7.835 7.835 0 0 1 -3.294-6.372v-1.779c.02.007.045-.027.07-.075a22.532 22.532 0 0 0 6.942 1.362c.291.01.58.015.87.015a23.573 23.573 0 0 0 7.775-1.334zm-15.291 8.18h-19.349a4.955 4.955 0 0 0 -1.555.272 27.958 27.958 0 0 1 18.538-7.686v1.042a9.788 9.788 0 0 0 2.366 6.369zm-19.349 2h53.71a3 3 0 0 1 3 3v30.438a8.949 8.949 0 0 0 -.668 3.392c0 .192.016.38.028.569h-1.715v-29.117a5.006 5.006 0 0 0 -5-5h-45a5.006 5.006 0 0 0 -5 5v8.914a1 1 0 1 0 2 0v-8.914a3 3 0 0 1 3-3h45a3 3 0 0 1 3 3v29.114h-51v-6.512a1 1 0 0 0 -2 0v6.512h-1.715c.012-.189.028-.377.028-.569a8.949 8.949 0 0 0 -.668-3.392v-30.438a3 3 0 0 1 3-3zm-2.71 39.4h59.13a9.02 9.02 0 0 0 2.977 4.431h-65.084a9.02 9.02 0 0 0 2.977-4.435zm49.757-79.498a6.078 6.078 0 0 0 -6.052-5.653h-10.066a3.291 3.291 0 0 0 -3.287 3.287v.767h-1.616a4.469 4.469 0 0 0 -4.435-4.054h-8.876a6.076 6.076 0 0 0 -6.052 5.656l-1.416.4v-1.231a18.211 18.211 0 0 1 5.281-12.867 6.357 6.357 0 0 1 4.556-1.868 7.112 7.112 0 0 1 2.25.37 31.223 31.223 0 0 0 9.521 1.332 31.223 31.223 0 0 0 9.521-1.332 6.554 6.554 0 0 1 6.8 1.5 18.209 18.209 0 0 1 5.282 12.867v1.232zm-1.979.418v3.463a4.9 4.9 0 0 1 -4.89 4.89h-5.646a4.9 4.9 0 0 1 -4.89-4.89v-6.25a1.289 1.289 0 0 1 1.287-1.284h10.066a4.078 4.078 0 0 1 4.073 4.071zm-21-1.6v5.06a4.9 4.9 0 0 1 -4.89 4.89h-5.646a4.9 4.9 0 0 1 -4.89-4.89v-3.46a4.078 4.078 0 0 1 4.073-4.071h8.876a2.48 2.48 0 0 1 2.477 2.474zm26.725 12.238a1.449 1.449 0 0 1 -.56-.129 24.016 24.016 0 0 0 .23-3.287v-4.055a1.477 1.477 0 0 1 .33-.042c1.285 0 2.37 1.72 2.37 3.756s-1.085 3.757-2.37 3.757zm-23.938-41.887a26.014 26.014 0 0 1 25.984 25.985v7.041a3.589 3.589 0 0 0 -2.046-.648c-.112 0-.219.022-.33.033v-2.4a20.2 20.2 0 0 0 -5.858-14.28 8.542 8.542 0 0 0 -8.861-1.99 29.233 29.233 0 0 1 -8.889 1.229 29.237 29.237 0 0 1 -8.889-1.229 8.542 8.542 0 0 0 -8.861 1.99 20.2 20.2 0 0 0 -5.858 14.272v2.4c-.111-.011-.218-.033-.33-.033a3.6 3.6 0 0 0 -2.047.652v-7.037a26.015 26.015 0 0 1 25.985-25.985zm-23.938 41.887c-1.285 0-2.37-1.72-2.37-3.757s1.085-3.752 2.37-3.752a1.47 1.47 0 0 1 .33.042v3.513a24.271 24.271 0 0 0 .3 3.795 1.483 1.483 0 0 1 -.63.159zm2.33-3.958v-4.614l1.395-.4v1.8a6.9 6.9 0 0 0 6.89 6.89h5.646a6.9 6.9 0 0 0 6.89-6.89v-3.486h1.574v3.483a6.9 6.9 0 0 0 6.89 6.89h5.646a6.9 6.9 0 0 0 6.89-6.89v-1.8l1.4.4v5.156a21.608 21.608 0 0 1 -22.4 21.594c-11.482-.405-20.821-10.335-20.821-22.133zm-10.153 35.067a4.929 4.929 0 0 0 -.094.93v27.442a8.976 8.976 0 0 0 -5.332-2.553v-9.26a27.909 27.909 0 0 1 5.426-16.559zm-13.426 34.76a7 7 0 1 1 7 7 7.008 7.008 0 0 1 -7-7zm83.374 7a7 7 0 1 1 7-7 7.008 7.008 0 0 1 -7 7z"/></g></svg>